# xmcd CD database file
#
# Track frame offsets:
#	150
#	19812
#	39012
#	53952
#	82650
#	93820
#	112447
#	125595
#	142827
#	153980
#	156517
#	168692
#
# Disc length: 2472 seconds
#
# Revision: 5
# Processed by: cddbd v1.5PL3 Copyright (c) Steve Scherf et al.
# Submitted via: CDex 1.51
#
DISCID=9409a60c
DTITLE=Paul Mccartney - Tug Of War
DYEAR=1982
DGENRE=Rock
TTITLE0=Tug Of War
TTITLE1=Take It Away
TTITLE2=Somebody Who Cares
TTITLE3=What's That You're Doing?
TTITLE4=Here Today
TTITLE5=Ballroom Dancing
TTITLE6=The Pound Is Sinking
TTITLE7=Wanderlust
TTITLE8=Get It
TTITLE9=Be What You See (Link)
TTITLE10=Dress Me Up As A Robber
TTITLE11=Ebony And Ivory
EXTD=YEAR: 1982
EXTT0=
EXTT1=
EXTT2=
EXTT3=
EXTT4=
EXTT5=
EXTT6=
EXTT7=
EXTT8=
EXTT9=
EXTT10=
EXTT11=
PLAYORDER=
